<?xml version="1.0" standalone="no"?>
<!DOCTYPE svg PUBLIC "-//W3C//DTD SVG 20010904//EN"
 "http://www.w3.org/TR/2001/REC-SVG-20010904/DTD/svg10.dtd">
<svg version="1.0" xmlns="http://www.w3.org/2000/svg"
 width="840.000000pt" height="775.000000pt" viewBox="0 0 840.000000 775.000000"
 preserveAspectRatio="xMidYMid meet">

<g transform="translate(0.000000,775.000000) scale(0.100000,-0.100000)"
fill="#000000" stroke="none">
<path d="M2250 7333 c-464 -44 -811 -159 -1131 -373 -496 -334 -789 -827 -891
-1500 -18 -116 -17 -566 0 -685 113 -755 508 -1416 1272 -2131 169 -158 504
-447 799 -689 969 -794 1235 -1032 1560 -1398 123 -138 162 -168 261 -193 82
-21 155 -13 235 26 73 35 74 36 211 190 284 318 614 618 1314 1190 671 549
896 745 1181 1029 283 284 441 470 611 721 294 433 445 818 509 1300 18 132
16 487 -4 625 -60 430 -213 798 -457 1105 -77 96 -245 263 -335 331 -341 261
-745 411 -1213 450 -370 31 -704 -35 -1051 -207 -311 -154 -677 -435 -848
-651 l-68 -85 -30 34 c-16 19 -55 64 -85 99 -79 94 -204 205 -367 328 -444
335 -879 496 -1325 489 -62 0 -129 -3 -148 -5z m330 -734 c385 -62 913 -434
1297 -914 106 -133 198 -185 323 -185 132 0 215 48 331 191 110 138 378 406
509 509 273 216 526 347 770 396 103 20 357 15 490 -11 502 -98 867 -379 1050
-808 72 -170 108 -351 117 -582 19 -517 -151 -977 -540 -1462 -259 -324 -545
-595 -1352 -1278 -622 -528 -842 -724 -1153 -1030 -118 -115 -217 -211 -221
-213 -5 -1 -41 32 -81 75 -217 230 -578 561 -1053 965 -935 798 -1037 888
-1287 1144 -498 510 -750 950 -826 1447 -10 64 -16 170 -16 282 -1 454 129
803 399 1071 266 265 635 410 1048 413 72 0 159 -4 195 -10z"/>
</g>
</svg>
