<?xml version="1.0" standalone="no"?>
<!DOCTYPE svg PUBLIC "-//W3C//DTD SVG 20010904//EN"
 "http://www.w3.org/TR/2001/REC-SVG-20010904/DTD/svg10.dtd">
<svg version="1.0" xmlns="http://www.w3.org/2000/svg"
 width="860.000000pt" height="901.000000pt" viewBox="0 0 860.000000 901.000000"
 preserveAspectRatio="xMidYMid meet">

<g transform="translate(0.000000,901.000000) scale(0.100000,-0.100000)"
fill="#000000" stroke="none">
<path d="M4115 8604 c-649 -40 -1177 -171 -1700 -423 -1192 -574 -1974 -1625
-2095 -2816 -14 -141 -15 -469 0 -610 69 -688 357 -1344 822 -1873 l99 -112
-387 -778 c-406 -815 -540 -1095 -550 -1150 -21 -109 89 -234 206 -236 64 -1
225 75 1370 644 l975 486 65 -18 c750 -210 1329 -262 1959 -178 1093 147 2058
672 2696 1468 404 503 672 1152 716 1735 15 204 7 642 -16 787 -139 894 -663
1715 -1460 2285 -602 431 -1363 710 -2110 775 -132 11 -496 20 -590 14z m580
-475 c501 -33 1087 -217 1565 -492 138 -79 278 -174 420 -283 143 -110 460
-425 561 -559 410 -539 609 -1108 609 -1741 0 -210 -13 -346 -50 -534 -108
-539 -381 -1045 -794 -1468 -82 -84 -194 -190 -249 -235 -546 -452 -1196 -729
-1962 -833 -162 -22 -778 -26 -940 -6 -300 38 -584 104 -880 204 l-150 51
-884 -442 c-486 -243 -885 -440 -888 -438 -2 3 164 340 368 750 l373 745 -151
158 c-219 230 -326 364 -456 575 -114 185 -213 396 -284 604 -164 486 -187
1034 -63 1525 200 796 758 1502 1535 1942 430 244 960 413 1515 483 126 16
523 13 805 -6z"/>
</g>
</svg>
